<mxfile host="app.diagrams.net" agent="Mozilla/5.0 (Windows NT 10.0; Win64; x64) AppleWebKit/537.36 (KHTML, like Gecko) Chrome/130.0.0.0 Safari/537.36 Edg/130.0.0.0" version="24.8.3">
  <diagram id="C5RBs43oDa-KdzZeNtuy" name="Page-1">
    <mxGraphModel dx="1426" dy="755" grid="1" gridSize="10" guides="1" tooltips="1" connect="1" arrows="1" fold="1" page="1" pageScale="1" pageWidth="827" pageHeight="1169" math="0" shadow="0">
      <root>
        <mxCell id="WIyWlLk6GJQsqaUBKTNV-0" />
        <mxCell id="WIyWlLk6GJQsqaUBKTNV-1" parent="WIyWlLk6GJQsqaUBKTNV-0" />
        <mxCell id="_DtNrCs3hjMBpUFZXUvi-26" value="" style="shape=table;startSize=0;container=1;collapsible=0;childLayout=tableLayout;fontStyle=1;fontSize=16;" vertex="1" parent="WIyWlLk6GJQsqaUBKTNV-1">
          <mxGeometry x="40" y="600" width="120" height="200" as="geometry" />
        </mxCell>
        <mxCell id="_DtNrCs3hjMBpUFZXUvi-27" value="" style="shape=tableRow;horizontal=0;startSize=0;swimlaneHead=0;swimlaneBody=0;strokeColor=inherit;top=0;left=0;bottom=0;right=0;collapsible=0;dropTarget=0;fillColor=none;points=[[0,0.5],[1,0.5]];portConstraint=eastwest;fontSize=16;" vertex="1" parent="_DtNrCs3hjMBpUFZXUvi-26">
          <mxGeometry width="120" height="33" as="geometry" />
        </mxCell>
        <mxCell id="_DtNrCs3hjMBpUFZXUvi-28" value="主管" style="shape=partialRectangle;html=1;whiteSpace=wrap;connectable=0;strokeColor=inherit;overflow=hidden;fillColor=none;top=0;left=0;bottom=0;right=0;pointerEvents=1;fontSize=16;" vertex="1" parent="_DtNrCs3hjMBpUFZXUvi-27">
          <mxGeometry width="120" height="33" as="geometry">
            <mxRectangle width="120" height="33" as="alternateBounds" />
          </mxGeometry>
        </mxCell>
        <mxCell id="_DtNrCs3hjMBpUFZXUvi-29" value="" style="shape=tableRow;horizontal=0;startSize=0;swimlaneHead=0;swimlaneBody=0;strokeColor=inherit;top=0;left=0;bottom=0;right=0;collapsible=0;dropTarget=0;fillColor=none;points=[[0,0.5],[1,0.5]];portConstraint=eastwest;fontSize=16;" vertex="1" parent="_DtNrCs3hjMBpUFZXUvi-26">
          <mxGeometry y="33" width="120" height="167" as="geometry" />
        </mxCell>
        <mxCell id="_DtNrCs3hjMBpUFZXUvi-30" value="&lt;div style=&quot;font-size: 16px;&quot;&gt;績效獎金 int&lt;/div&gt;&lt;div style=&quot;font-size: 16px;&quot;&gt;交通津貼 int&lt;/div&gt;" style="shape=partialRectangle;html=1;whiteSpace=wrap;connectable=0;strokeColor=inherit;overflow=hidden;fillColor=none;top=0;left=0;bottom=0;right=0;pointerEvents=1;align=left;fontSize=16;" vertex="1" parent="_DtNrCs3hjMBpUFZXUvi-29">
          <mxGeometry width="120" height="167" as="geometry">
            <mxRectangle width="120" height="167" as="alternateBounds" />
          </mxGeometry>
        </mxCell>
        <mxCell id="_DtNrCs3hjMBpUFZXUvi-31" value="" style="shape=table;startSize=0;container=1;collapsible=0;childLayout=tableLayout;fontStyle=1;fontSize=16;" vertex="1" parent="WIyWlLk6GJQsqaUBKTNV-1">
          <mxGeometry x="240" y="600" width="120" height="200" as="geometry" />
        </mxCell>
        <mxCell id="_DtNrCs3hjMBpUFZXUvi-32" value="" style="shape=tableRow;horizontal=0;startSize=0;swimlaneHead=0;swimlaneBody=0;strokeColor=inherit;top=0;left=0;bottom=0;right=0;collapsible=0;dropTarget=0;fillColor=none;points=[[0,0.5],[1,0.5]];portConstraint=eastwest;fontSize=16;" vertex="1" parent="_DtNrCs3hjMBpUFZXUvi-31">
          <mxGeometry width="120" height="33" as="geometry" />
        </mxCell>
        <mxCell id="_DtNrCs3hjMBpUFZXUvi-33" value="銷售員" style="shape=partialRectangle;html=1;whiteSpace=wrap;connectable=0;strokeColor=inherit;overflow=hidden;fillColor=none;top=0;left=0;bottom=0;right=0;pointerEvents=1;fontSize=16;" vertex="1" parent="_DtNrCs3hjMBpUFZXUvi-32">
          <mxGeometry width="120" height="33" as="geometry">
            <mxRectangle width="120" height="33" as="alternateBounds" />
          </mxGeometry>
        </mxCell>
        <mxCell id="_DtNrCs3hjMBpUFZXUvi-34" value="" style="shape=tableRow;horizontal=0;startSize=0;swimlaneHead=0;swimlaneBody=0;strokeColor=inherit;top=0;left=0;bottom=0;right=0;collapsible=0;dropTarget=0;fillColor=none;points=[[0,0.5],[1,0.5]];portConstraint=eastwest;fontSize=16;" vertex="1" parent="_DtNrCs3hjMBpUFZXUvi-31">
          <mxGeometry y="33" width="120" height="167" as="geometry" />
        </mxCell>
        <mxCell id="_DtNrCs3hjMBpUFZXUvi-35" value="&lt;div style=&quot;font-size: 16px;&quot;&gt;銷售獎金 int&lt;/div&gt;" style="shape=partialRectangle;html=1;whiteSpace=wrap;connectable=0;strokeColor=inherit;overflow=hidden;fillColor=none;top=0;left=0;bottom=0;right=0;pointerEvents=1;align=left;fontSize=16;" vertex="1" parent="_DtNrCs3hjMBpUFZXUvi-34">
          <mxGeometry width="120" height="167" as="geometry">
            <mxRectangle width="120" height="167" as="alternateBounds" />
          </mxGeometry>
        </mxCell>
        <mxCell id="_DtNrCs3hjMBpUFZXUvi-36" value="" style="shape=table;startSize=0;container=1;collapsible=0;childLayout=tableLayout;fontStyle=1;fontSize=16;" vertex="1" parent="WIyWlLk6GJQsqaUBKTNV-1">
          <mxGeometry x="520" y="600" width="120" height="200" as="geometry" />
        </mxCell>
        <mxCell id="_DtNrCs3hjMBpUFZXUvi-37" value="" style="shape=tableRow;horizontal=0;startSize=0;swimlaneHead=0;swimlaneBody=0;strokeColor=inherit;top=0;left=0;bottom=0;right=0;collapsible=0;dropTarget=0;fillColor=none;points=[[0,0.5],[1,0.5]];portConstraint=eastwest;fontSize=16;" vertex="1" parent="_DtNrCs3hjMBpUFZXUvi-36">
          <mxGeometry width="120" height="33" as="geometry" />
        </mxCell>
        <mxCell id="_DtNrCs3hjMBpUFZXUvi-38" value="臨時員工" style="shape=partialRectangle;html=1;whiteSpace=wrap;connectable=0;strokeColor=inherit;overflow=hidden;fillColor=none;top=0;left=0;bottom=0;right=0;pointerEvents=1;fontSize=16;" vertex="1" parent="_DtNrCs3hjMBpUFZXUvi-37">
          <mxGeometry width="120" height="33" as="geometry">
            <mxRectangle width="120" height="33" as="alternateBounds" />
          </mxGeometry>
        </mxCell>
        <mxCell id="_DtNrCs3hjMBpUFZXUvi-39" value="" style="shape=tableRow;horizontal=0;startSize=0;swimlaneHead=0;swimlaneBody=0;strokeColor=inherit;top=0;left=0;bottom=0;right=0;collapsible=0;dropTarget=0;fillColor=none;points=[[0,0.5],[1,0.5]];portConstraint=eastwest;fontSize=16;" vertex="1" parent="_DtNrCs3hjMBpUFZXUvi-36">
          <mxGeometry y="33" width="120" height="167" as="geometry" />
        </mxCell>
        <mxCell id="_DtNrCs3hjMBpUFZXUvi-40" value="&lt;div style=&quot;font-size: 16px;&quot;&gt;時薪 int&lt;/div&gt;&lt;div style=&quot;font-size: 16px;&quot;&gt;當月工作時數 int&lt;/div&gt;" style="shape=partialRectangle;html=1;whiteSpace=wrap;connectable=0;strokeColor=inherit;overflow=hidden;fillColor=none;top=0;left=0;bottom=0;right=0;pointerEvents=1;align=left;fontSize=16;" vertex="1" parent="_DtNrCs3hjMBpUFZXUvi-39">
          <mxGeometry width="120" height="167" as="geometry">
            <mxRectangle width="120" height="167" as="alternateBounds" />
          </mxGeometry>
        </mxCell>
        <mxCell id="_DtNrCs3hjMBpUFZXUvi-41" value="" style="shape=table;startSize=0;container=1;collapsible=0;childLayout=tableLayout;fontStyle=1;fontSize=16;" vertex="1" parent="WIyWlLk6GJQsqaUBKTNV-1">
          <mxGeometry x="140" y="320" width="120" height="227" as="geometry" />
        </mxCell>
        <mxCell id="_DtNrCs3hjMBpUFZXUvi-42" value="" style="shape=tableRow;horizontal=0;startSize=0;swimlaneHead=0;swimlaneBody=0;strokeColor=inherit;top=0;left=0;bottom=0;right=0;collapsible=0;dropTarget=0;fillColor=none;points=[[0,0.5],[1,0.5]];portConstraint=eastwest;fontSize=16;" vertex="1" parent="_DtNrCs3hjMBpUFZXUvi-41">
          <mxGeometry width="120" height="60" as="geometry" />
        </mxCell>
        <mxCell id="_DtNrCs3hjMBpUFZXUvi-43" value="永久員工&lt;div style=&quot;font-size: 16px;&quot;&gt;(一般職員)&lt;/div&gt;" style="shape=partialRectangle;html=1;whiteSpace=wrap;connectable=0;strokeColor=inherit;overflow=hidden;fillColor=none;top=0;left=0;bottom=0;right=0;pointerEvents=1;fontSize=16;" vertex="1" parent="_DtNrCs3hjMBpUFZXUvi-42">
          <mxGeometry width="120" height="60" as="geometry">
            <mxRectangle width="120" height="60" as="alternateBounds" />
          </mxGeometry>
        </mxCell>
        <mxCell id="_DtNrCs3hjMBpUFZXUvi-44" value="" style="shape=tableRow;horizontal=0;startSize=0;swimlaneHead=0;swimlaneBody=0;strokeColor=inherit;top=0;left=0;bottom=0;right=0;collapsible=0;dropTarget=0;fillColor=none;points=[[0,0.5],[1,0.5]];portConstraint=eastwest;fontSize=16;" vertex="1" parent="_DtNrCs3hjMBpUFZXUvi-41">
          <mxGeometry y="60" width="120" height="167" as="geometry" />
        </mxCell>
        <mxCell id="_DtNrCs3hjMBpUFZXUvi-45" value="&lt;div style=&quot;font-size: 16px;&quot;&gt;本薪 int&lt;/div&gt;&lt;div style=&quot;font-size: 16px;&quot;&gt;午餐津貼 int&lt;/div&gt;" style="shape=partialRectangle;html=1;whiteSpace=wrap;connectable=0;strokeColor=inherit;overflow=hidden;fillColor=none;top=0;left=0;bottom=0;right=0;pointerEvents=1;align=left;fontSize=16;" vertex="1" parent="_DtNrCs3hjMBpUFZXUvi-44">
          <mxGeometry width="120" height="167" as="geometry">
            <mxRectangle width="120" height="167" as="alternateBounds" />
          </mxGeometry>
        </mxCell>
        <mxCell id="_DtNrCs3hjMBpUFZXUvi-46" value="" style="shape=table;startSize=0;container=1;collapsible=0;childLayout=tableLayout;fontStyle=1;fontSize=16;" vertex="1" parent="WIyWlLk6GJQsqaUBKTNV-1">
          <mxGeometry x="300" y="90" width="160" height="200" as="geometry" />
        </mxCell>
        <mxCell id="_DtNrCs3hjMBpUFZXUvi-47" value="" style="shape=tableRow;horizontal=0;startSize=0;swimlaneHead=0;swimlaneBody=0;strokeColor=inherit;top=0;left=0;bottom=0;right=0;collapsible=0;dropTarget=0;fillColor=none;points=[[0,0.5],[1,0.5]];portConstraint=eastwest;fontSize=16;" vertex="1" parent="_DtNrCs3hjMBpUFZXUvi-46">
          <mxGeometry width="160" height="33" as="geometry" />
        </mxCell>
        <mxCell id="_DtNrCs3hjMBpUFZXUvi-48" value="員工" style="shape=partialRectangle;html=1;whiteSpace=wrap;connectable=0;strokeColor=inherit;overflow=hidden;fillColor=none;top=0;left=0;bottom=0;right=0;pointerEvents=1;fontSize=16;" vertex="1" parent="_DtNrCs3hjMBpUFZXUvi-47">
          <mxGeometry width="160" height="33" as="geometry">
            <mxRectangle width="160" height="33" as="alternateBounds" />
          </mxGeometry>
        </mxCell>
        <mxCell id="_DtNrCs3hjMBpUFZXUvi-49" value="" style="shape=tableRow;horizontal=0;startSize=0;swimlaneHead=0;swimlaneBody=0;strokeColor=inherit;top=0;left=0;bottom=0;right=0;collapsible=0;dropTarget=0;fillColor=none;points=[[0,0.5],[1,0.5]];portConstraint=eastwest;fontSize=16;" vertex="1" parent="_DtNrCs3hjMBpUFZXUvi-46">
          <mxGeometry y="33" width="160" height="167" as="geometry" />
        </mxCell>
        <mxCell id="_DtNrCs3hjMBpUFZXUvi-50" value="&lt;span style=&quot;font-size: 16px;&quot;&gt;姓名 String&lt;/span&gt;&lt;div style=&quot;font-size: 16px;&quot;&gt;性別 int&lt;/div&gt;&lt;div style=&quot;font-size: 16px;&quot;&gt;到職日 int&lt;/div&gt;&lt;div style=&quot;font-size: 16px;&quot;&gt;電話 String&lt;/div&gt;&lt;div style=&quot;font-size: 16px;&quot;&gt;email String&lt;/div&gt;&lt;div style=&quot;font-size: 16px;&quot;&gt;&lt;br style=&quot;font-size: 16px;&quot;&gt;&lt;/div&gt;" style="shape=partialRectangle;html=1;whiteSpace=wrap;connectable=0;strokeColor=inherit;overflow=hidden;fillColor=none;top=0;left=0;bottom=0;right=0;pointerEvents=1;align=left;fontSize=16;" vertex="1" parent="_DtNrCs3hjMBpUFZXUvi-49">
          <mxGeometry width="160" height="167" as="geometry">
            <mxRectangle width="160" height="167" as="alternateBounds" />
          </mxGeometry>
        </mxCell>
        <mxCell id="_DtNrCs3hjMBpUFZXUvi-52" style="edgeStyle=orthogonalEdgeStyle;rounded=0;orthogonalLoop=1;jettySize=auto;html=1;exitX=0.267;exitY=0.03;exitDx=0;exitDy=0;exitPerimeter=0;endArrow=block;endFill=0;endSize=16;fontSize=16;" edge="1" parent="WIyWlLk6GJQsqaUBKTNV-1" source="_DtNrCs3hjMBpUFZXUvi-27" target="_DtNrCs3hjMBpUFZXUvi-44">
          <mxGeometry relative="1" as="geometry">
            <Array as="points">
              <mxPoint x="80" y="601" />
              <mxPoint x="80" y="464" />
            </Array>
          </mxGeometry>
        </mxCell>
        <mxCell id="_DtNrCs3hjMBpUFZXUvi-55" style="edgeStyle=orthogonalEdgeStyle;rounded=0;orthogonalLoop=1;jettySize=auto;html=1;entryX=1;entryY=0.5;entryDx=0;entryDy=0;exitX=0.667;exitY=-0.061;exitDx=0;exitDy=0;exitPerimeter=0;endArrow=block;endFill=0;endSize=16;fontSize=16;" edge="1" parent="WIyWlLk6GJQsqaUBKTNV-1" source="_DtNrCs3hjMBpUFZXUvi-32">
          <mxGeometry relative="1" as="geometry">
            <mxPoint x="312" y="594.4870000000001" as="sourcePoint" />
            <mxPoint x="260" y="460" as="targetPoint" />
            <Array as="points">
              <mxPoint x="320" y="460" />
            </Array>
          </mxGeometry>
        </mxCell>
        <mxCell id="_DtNrCs3hjMBpUFZXUvi-58" style="edgeStyle=orthogonalEdgeStyle;rounded=0;orthogonalLoop=1;jettySize=auto;html=1;entryX=0.033;entryY=0.461;entryDx=0;entryDy=0;entryPerimeter=0;endArrow=block;endFill=0;exitX=0.492;exitY=0.017;exitDx=0;exitDy=0;exitPerimeter=0;endSize=16;fontSize=16;" edge="1" parent="WIyWlLk6GJQsqaUBKTNV-1" source="_DtNrCs3hjMBpUFZXUvi-42" target="_DtNrCs3hjMBpUFZXUvi-49">
          <mxGeometry relative="1" as="geometry">
            <mxPoint x="200" y="310" as="sourcePoint" />
          </mxGeometry>
        </mxCell>
        <mxCell id="_DtNrCs3hjMBpUFZXUvi-59" style="edgeStyle=orthogonalEdgeStyle;rounded=0;orthogonalLoop=1;jettySize=auto;html=1;exitX=0.517;exitY=-0.03;exitDx=0;exitDy=0;exitPerimeter=0;endArrow=block;endFill=0;endSize=16;fontSize=16;" edge="1" parent="WIyWlLk6GJQsqaUBKTNV-1" source="_DtNrCs3hjMBpUFZXUvi-37" target="_DtNrCs3hjMBpUFZXUvi-49">
          <mxGeometry relative="1" as="geometry">
            <Array as="points">
              <mxPoint x="582" y="200" />
            </Array>
          </mxGeometry>
        </mxCell>
      </root>
    </mxGraphModel>
  </diagram>
</mxfile>
